HIERARCHY
ROOT Hips
{
    OFFSET   0.000000   0.000000   0.000000
    CHANNELS 6 Xposition Yposition Zposition Zrotation Xrotation Yrotation
    JOINT Chest
    {
        OFFSET   0.000000   8.007230   0.000000
        CHANNELS 3 Zrotation Xrotation Yrotation
        JOINT Chest2
        {
            OFFSET   0.000000  22.077100   0.000000
            CHANNELS 3 Zrotation Xrotation Yrotation
            JOINT Neck
            {
                OFFSET   0.000000  23.254800  -0.000021
                CHANNELS 3 Zrotation Xrotation Yrotation
                JOINT Head
                {
                    OFFSET   0.000000  14.370000   1.956610
                    CHANNELS 3 Zrotation Xrotation Yrotation
                    End Site
                    {
                        OFFSET   0.000000  19.566000   0.000000
                    }
                }
            }
            JOINT LeftCollar
            {
                OFFSET   3.911900  19.017000  -0.467063
                CHANNELS 3 Zrotation Xrotation Yrotation
                JOINT LeftShoulder
                {
                    OFFSET  10.383700   0.000000   0.000000
                    CHANNELS 3 Zrotation Xrotation Yrotation
                    JOINT LeftElbow
                    {
                        OFFSET  26.662100   0.001529   0.000325
                        CHANNELS 3 Zrotation Xrotation Yrotation
                        JOINT LeftWrist
                        {
                            OFFSET  28.869000  -0.000011  -0.000096
                            CHANNELS 3 Zrotation Xrotation Yrotation
                            JOINT LeftFinger0
                            {
                                OFFSET   2.044650  -2.323460   3.252850
                                CHANNELS 3 Zrotation Xrotation Yrotation
                                JOINT LeftFinger01
                                {
                                    OFFSET   3.088130   0.000000   0.000000
                                    CHANNELS 3 Zrotation Xrotation Yrotation
                                    JOINT LeftFinger02
                                    {
                                        OFFSET   2.639460   0.000000   0.000000
                                        CHANNELS 3 Zrotation Xrotation Yrotation
                                        End Site
                                        {
                                            OFFSET   2.582190   0.000000   0.000000
                                        }
                                    }
                                }
                            }
                            JOINT LeftFinger1
                            {
                                OFFSET   8.364480   0.000000   3.252850
                                CHANNELS 3 Zrotation Xrotation Yrotation
                                JOINT LeftFinger11
                                {
                                    OFFSET   4.646930   0.000000   0.000000
                                    CHANNELS 3 Zrotation Xrotation Yrotation
                                    JOINT LeftFinger12
                                    {
                                        OFFSET   2.323460   0.000000   0.000000
                                        CHANNELS 3 Zrotation Xrotation Yrotation
                                        End Site
                                        {
                                            OFFSET   2.273050   0.000000   0.000000
                                        }
                                    }
                                }
                            }
                            JOINT LeftFinger2
                            {
                                OFFSET   8.364480   0.000016   1.078090
                                CHANNELS 3 Zrotation Xrotation Yrotation
                                JOINT LeftFinger21
                                {
                                    OFFSET   5.111620   0.000000   0.000000
                                    CHANNELS 3 Zrotation Xrotation Yrotation
                                    JOINT LeftFinger22
                                    {
                                        OFFSET   2.788160   0.000017   0.000000
                                        CHANNELS 3 Zrotation Xrotation Yrotation
                                        End Site
                                        {
                                            OFFSET   2.727660   0.000000   0.000000
                                        }
                                    }
                                }
                            }
                            JOINT LeftFinger3
                            {
                                OFFSET   7.899780   0.000015  -1.078090
                                CHANNELS 3 Zrotation Xrotation Yrotation
                                JOINT LeftFinger31
                                {
                                    OFFSET   4.646920   0.000000   0.000000
                                    CHANNELS 3 Zrotation Xrotation Yrotation
                                    JOINT LeftFinger32
                                    {
                                        OFFSET   2.323470   0.000000   0.000000
                                        CHANNELS 3 Zrotation Xrotation Yrotation
                                        End Site
                                        {
                                            OFFSET   2.273050   0.000000   0.000000
                                        }
                                    }
                                }
                            }
                            JOINT LeftFinger4
                            {
                                OFFSET   7.435090   0.000000  -3.252850
                                CHANNELS 3 Zrotation Xrotation Yrotation
                                JOINT LeftFinger41
                                {
                                    OFFSET   3.717550   0.000000   0.000000
                                    CHANNELS 3 Zrotation Xrotation Yrotation
                                    JOINT LeftFinger42
                                    {
                                        OFFSET   1.858760   0.000000   0.000000
                                        CHANNELS 3 Zrotation Xrotation Yrotation
                                        End Site
                                        {
                                            OFFSET   1.818440   0.000000   0.000000
                                        }
                                    }
                                }
                            }
                        }
                    }
                }
            }
            JOINT RightCollar
            {
                OFFSET  -3.911900  19.017000  -0.467062
                CHANNELS 3 Zrotation Xrotation Yrotation
                JOINT RightShoulder
                {
                    OFFSET -10.383700   0.000015   0.000000
                    CHANNELS 3 Zrotation Xrotation Yrotation
                    JOINT RightElbow
                    {
                        OFFSET -26.662100   0.001341   0.000385
                        CHANNELS 3 Zrotation Xrotation Yrotation
                        JOINT RightWrist
                        {
                            OFFSET -28.869000   0.000025  -0.000080
                            CHANNELS 3 Zrotation Xrotation Yrotation
                            JOINT RightFinger0
                            {
                                OFFSET  -2.044650  -2.323490   3.252850
                                CHANNELS 3 Zrotation Xrotation Yrotation
                                JOINT RightFinger01
                                {
                                    OFFSET  -3.088130   0.000000   0.000000
                                    CHANNELS 3 Zrotation Xrotation Yrotation
                                    JOINT RightFinger02
                                    {
                                        OFFSET  -2.639460   0.000000   0.000000
                                        CHANNELS 3 Zrotation Xrotation Yrotation
                                        End Site
                                        {
                                            OFFSET  -2.582190   0.000000   0.000000
                                        }
                                    }
                                }
                            }
                            JOINT RightFinger1
                            {
                                OFFSET  -8.364480   0.000000   3.252850
                                CHANNELS 3 Zrotation Xrotation Yrotation
                                JOINT RightFinger11
                                {
                                    OFFSET  -4.646930   0.000000   0.000000
                                    CHANNELS 3 Zrotation Xrotation Yrotation
                                    JOINT RightFinger12
                                    {
                                        OFFSET  -2.323470   0.000000   0.000000
                                        CHANNELS 3 Zrotation Xrotation Yrotation
                                        End Site
                                        {
                                            OFFSET  -2.273050   0.000000   0.000000
                                        }
                                    }
                                }
                            }
                            JOINT RightFinger2
                            {
                                OFFSET  -8.364480   0.000000   1.078090
                                CHANNELS 3 Zrotation Xrotation Yrotation
                                JOINT RightFinger21
                                {
                                    OFFSET  -5.111610   0.000000   0.000000
                                    CHANNELS 3 Zrotation Xrotation Yrotation
                                    JOINT RightFinger22
                                    {
                                        OFFSET  -2.788160   0.000000   0.000000
                                        CHANNELS 3 Zrotation Xrotation Yrotation
                                        End Site
                                        {
                                            OFFSET  -2.727660   0.000000   0.000000
                                        }
                                    }
                                }
                            }
                            JOINT RightFinger3
                            {
                                OFFSET  -7.899780   0.000000  -1.078090
                                CHANNELS 3 Zrotation Xrotation Yrotation
                                JOINT RightFinger31
                                {
                                    OFFSET  -4.646920   0.000000   0.000000
                                    CHANNELS 3 Zrotation Xrotation Yrotation
                                    JOINT RightFinger32
                                    {
                                        OFFSET  -2.323470   0.000000   0.000000
                                        CHANNELS 3 Zrotation Xrotation Yrotation
                                        End Site
                                        {
                                            OFFSET  -2.273050   0.000000   0.000000
                                        }
                                    }
                                }
                            }
                            JOINT RightFinger4
                            {
                                OFFSET  -7.435090   0.000000  -3.252850
                                CHANNELS 3 Zrotation Xrotation Yrotation
                                JOINT RightFinger41
                                {
                                    OFFSET  -3.717550   0.000000   0.000000
                                    CHANNELS 3 Zrotation Xrotation Yrotation
                                    JOINT RightFinger42
                                    {
                                        OFFSET  -1.858770   0.000000   0.000000
                                        CHANNELS 3 Zrotation Xrotation Yrotation
                                        End Site
                                        {
                                            OFFSET  -1.818440   0.000000   0.000000
                                        }
                                    }
                                }
                            }
                        }
                    }
                }
            }
        }
    }
    JOINT LeftHip
    {
        OFFSET   9.783010   0.000000   0.000000
        CHANNELS 3 Zrotation Xrotation Yrotation
        JOINT LeftKnee
        {
            OFFSET   0.000070 -41.789100   0.000028
            CHANNELS 3 Zrotation Xrotation Yrotation
            JOINT LeftAnkle
            {
                OFFSET   0.000087 -41.133200  -0.000100
                CHANNELS 3 Zrotation Xrotation Yrotation
                JOINT LeftToe
                {
                    OFFSET   0.000000  -6.358960  14.674500
                    CHANNELS 3 Zrotation Xrotation Yrotation
                    End Site
                    {
                        OFFSET   0.000000   0.000000   3.913200
                    }
                }
            }
        }
    }
    JOINT RightHip
    {
        OFFSET  -9.783020   0.000000   0.000000
        CHANNELS 3 Zrotation Xrotation Yrotation
        JOINT RightKnee
        {
            OFFSET   0.000044 -41.789100  -0.000870
            CHANNELS 3 Zrotation Xrotation Yrotation
            JOINT RightAnkle
            {
                OFFSET  -0.000090 -41.133200  -0.000245
                CHANNELS 3 Zrotation Xrotation Yrotation
                JOINT RightToe
                {
                    OFFSET   0.000000  -6.358960  14.674500
                    CHANNELS 3 Zrotation Xrotation Yrotation
                    End Site
                    {
                        OFFSET   0.000000   0.000000   3.913200
                    }
                }
            }
        }
    }
}
MOTION
Frames: 6
Frame Time:   0.016667
 -3.660410  89.497700  -1.928980  -0.553419  -1.544030   2.135130   0.546696   2.726150  -0.103558   1.100200   5.451170  -0.233583  -0.236415  -0.806085   0.000157  -0.391591  -1.634140   1.891300  -6.364190   0.049065   7.031650 -75.485400   4.138830   2.266630   0.402910   3.594100 -14.432500  12.029500  -6.181280  -1.473990  37.235700  30.172200 -45.346900 -34.403400   0.000000   0.000059 -12.316200   0.000000  -0.001436 -37.981300  -0.895268   1.146100 -31.082500  -0.009024   0.000464 -21.757800   0.000686   0.007357 -28.755800  -3.747860   6.804140 -43.468400  -0.002371  -0.000942 -28.950000   0.002613  -0.001257 -29.066100  -4.646920   8.297310 -44.082700  -0.001233   0.001508 -29.369800   0.000178   0.001216 -40.385200  -6.189360   7.226870 -61.164900  -0.006423  -0.002564 -40.735800  -0.000678  -0.002641   9.929460   3.132720   7.076270  69.784700  -4.244080  -2.758180   4.540110  -6.975830  13.878700 -20.923300   0.816114   4.815460 -44.030400  35.088900  75.318200  15.275400  -0.000369  -0.004493   2.637670   0.011302  -0.005074  38.265800   5.172350   6.519990  31.549800  -0.007357   0.000838  22.089700  -0.006145   0.001528  30.037400   4.184530   7.192430  45.451100   0.001606   0.001797  30.270500  -0.009132  -0.000117  33.799700   3.260290   4.866390  50.907000   0.000993  -0.000584  33.904100  -0.006830   0.010482  43.576400  -2.189820  -2.299510  65.430400   0.000869   0.000000  43.576700  -0.000225  -0.000392   3.808620   1.304660  -1.920660   0.809483   2.666890  11.582300  -4.166970  -2.708400  -0.401222  -0.000000   0.000000   0.000000   1.106500   2.465100  -4.924860   0.128895   2.144190 -12.698100   0.072961  -4.422360  -2.851010  -0.000000   0.000000   0.000000
 -3.655950  89.497700  -1.917000  -0.552358  -1.571700   2.133750   0.548029   2.736100  -0.105215   1.102980   5.471060  -0.237064  -0.241484  -0.787626   0.000156  -0.398644  -1.597090   1.895400  -6.366400   0.066918   7.044020 -75.490200   4.184520   2.247240   0.396979   3.588420 -14.445200  12.028600  -6.175560  -1.483780  37.225900  30.151600 -45.302600 -34.402600   0.000000   0.000090 -12.316300   0.000000  -0.001456 -37.981100  -0.895269   1.146100 -31.082300  -0.009038   0.000461 -21.757700   0.000693   0.007349 -28.747200  -3.747860   6.804640 -43.455500  -0.002373  -0.000945 -28.941400   0.002604  -0.001259 -29.065900  -4.647830   8.298090 -44.087700  -0.001225   0.001523 -29.369700   0.000170   0.001224 -40.390800  -6.190770   7.226890 -61.173300  -0.006441  -0.002562 -40.741400  -0.000682  -0.002643   9.912080   3.113770   7.072450  69.791000  -4.178150  -2.743390   4.510850  -6.900600  13.908700 -20.899200   0.938475   4.861410 -44.046700  35.142200  75.387300  15.265100  -0.000375  -0.004466   2.632520   0.011295  -0.005067  38.258500   5.191710   6.545760  31.545800  -0.007311   0.000805  22.084800  -0.006165   0.001487  30.044900   4.201830   7.219630  45.465800   0.001629   0.001742  30.280300  -0.009131  -0.000191  33.812600   3.260320   4.861360  50.926100   0.001021  -0.000636  33.916800  -0.006867   0.010469  43.590400  -2.194410  -2.303130  65.451600   0.000925  -0.000030  43.590800  -0.000237  -0.000438   3.803170   1.339410  -1.928040   0.806276   2.660940  11.587000  -4.160880  -2.709700  -0.401552   0.000000   0.000000   0.000000   1.102120   2.511680  -4.924980   0.132699   2.125810 -12.718500   0.070638  -4.401610  -2.849720  -0.000000   0.000000   0.000000
 -3.648000  89.497600  -1.896300  -0.550326  -1.620960   2.126620   0.551992   2.752540  -0.107601   1.111090   5.503910  -0.242196  -0.251762  -0.755523   0.000155  -0.413889  -1.532410   1.901540  -6.371070   0.104822   7.067650 -75.500800   4.272380   2.214510   0.387207   3.580850 -14.467600  12.027800  -6.167300  -1.493570  37.216100  30.131000 -45.258400 -34.401900   0.000000   0.000131 -12.316500   0.000000  -0.001494 -37.980800  -0.895270   1.146100 -31.082100  -0.009074   0.000456 -21.757500   0.000712   0.007327 -28.738700  -3.747850   6.805140 -43.442600  -0.002378  -0.000952 -28.932800   0.002580  -0.001265 -29.065200  -4.650650   8.301910 -44.094900  -0.001204   0.001559 -29.369400   0.000147   0.001249 -40.396200  -6.194670   7.226940 -61.181600  -0.006485  -0.002558 -40.746900  -0.000691  -0.002648   9.874510   3.086500   7.061770  69.812600  -4.079320  -2.710920   4.454390  -6.766100  13.994000 -20.859100   1.239710   4.962110 -44.058300  35.209100  75.494200  15.210500  -0.000392  -0.004417   2.605240   0.011281  -0.005038  38.241900   5.241040   6.611140  31.537100  -0.007209   0.000738  22.076000  -0.006212   0.001401  30.064400   4.245900   7.288630  45.503300   0.001667   0.001631  30.305200  -0.009131  -0.000328  33.846100   3.260380   4.848070  50.976100   0.001066  -0.000759  33.950100  -0.006950   0.010440  43.622800  -2.205110  -2.311550  65.500600   0.001019  -0.000082  43.623400  -0.000261  -0.000512   3.793560   1.399630  -1.936600   0.801972   2.654950  11.595200  -4.151090  -2.714980  -0.401884  -0.000000   0.000000   0.000000   1.093400   2.590510  -4.925230   0.141959   2.096390 -12.757100   0.066358  -4.368130  -2.841120  -0.000000   0.000000   0.000000
 -3.640040  89.497400  -1.878160  -0.548168  -1.665130   2.110620   0.559204   2.763570  -0.108857   1.125640   5.525960  -0.245318  -0.265034  -0.725883   0.000158  -0.436146  -1.472090   1.905560  -6.374130   0.153123   7.096090 -75.512900   4.361970   2.188170   0.379000   3.579370 -14.487700  12.022800  -6.162820  -1.493370  37.221500  30.146000 -45.272900 -34.408000   0.000037   0.000137 -12.316500   0.000000  -0.001539 -37.980500  -0.900170   1.152450 -31.082000  -0.009130   0.000450 -21.757400   0.000743   0.007293 -28.743100  -3.747890   6.801150 -43.449000  -0.002383  -0.000964 -28.937000   0.002543  -0.001274 -29.063400  -4.656310   8.311430 -44.098400  -0.001168   0.001613 -29.369200   0.000109   0.001292 -40.394400  -6.201780   7.234010 -61.181100  -0.006555  -0.002553 -40.746600  -0.000707  -0.002653   9.829950   3.072080   7.053230  69.866800  -4.013550  -2.672440   4.389030  -6.660790  14.104300 -20.850000   1.711500   5.111980 -44.014800  35.233300  75.562700  15.058900  -0.000425  -0.004372   2.529430   0.011273  -0.004981  38.212100   5.341510   6.743790  31.522300  -0.007066   0.000648  22.065300  -0.006285   0.001283  30.104500   4.335620   7.428670  45.579500   0.001705   0.001482  30.355900  -0.009133  -0.000508  33.906100   3.253140   4.824230  51.064600   0.001113  -0.000941  34.009000  -0.007069   0.010399  43.654600  -2.215750  -2.319940  65.548900   0.001112  -0.000140  43.655600  -0.000288  -0.000583   3.784040   1.450610  -1.937790   0.800198   2.657330  11.601800  -4.143740  -2.725380  -0.400143   0.000000   0.000000   0.000000   1.082270   2.653430  -4.925750   0.157229   2.076150 -12.798200   0.062703  -4.343160  -2.805620  -0.000000   0.000000  -0.000000
 -3.632540  89.497300  -1.859190  -0.545706  -1.716790   2.089180   0.567733   2.778070  -0.109385   1.142800   5.554930  -0.246796  -0.278091  -0.696928   0.000167  -0.457090  -1.413010   1.907530  -6.368960   0.209475   7.121660 -75.530800   4.476250   2.159970   0.371916   3.577850 -14.510300  12.014300  -6.160870  -1.492990  37.230500  30.171000 -45.298700 -34.416900   0.000099   0.000143 -12.316500   0.000000  -0.001586 -37.980200  -0.907517   1.161930 -31.081900  -0.009200   0.000443 -21.757400   0.000782   0.007250 -28.752300  -3.747930   6.795190 -43.462200  -0.002390  -0.000979 -28.945800   0.002496  -0.001285 -29.061200  -4.662130   8.321520 -44.099800  -0.001123   0.001683 -29.369100   0.000059   0.001347 -40.391600  -6.209010   7.244600 -61.177600  -0.006644  -0.002547 -40.744300  -0.000727  -0.002659   9.768010   3.066180   7.021350  69.937400  -3.980810  -2.616720   4.321580  -6.501740  14.321200 -20.799100   2.246710   5.254230 -43.977500  35.239800  75.595800  14.921400  -0.000461  -0.004322   2.460690   0.011259  -0.004909  38.191400   5.411970   6.836870  31.512200  -0.006914   0.000560  22.058500  -0.006370   0.001164  30.132400   4.398540   7.526930  45.632900   0.001728   0.001347  30.391500  -0.009136  -0.000624  33.966800   3.242810   4.800150  51.153900   0.001141  -0.001156  34.068500  -0.007195   0.010358  43.722900  -2.238610  -2.337950  65.652600   0.001167  -0.000175  43.724700  -0.000314  -0.000626   3.775420   1.508420  -1.938250   0.798046   2.664290  11.611100  -4.137170  -2.740300  -0.395925  -0.000000   0.000000  -0.000000   1.071960   2.723070  -4.927940   0.172609   2.055950 -12.843600   0.060767  -4.320750  -2.746120  -0.000000   0.000000  -0.000000
 -3.627590  89.497300  -1.838220  -0.543071  -1.779410   2.065970   0.575733   2.798740  -0.107149   1.158790   5.596250  -0.242776  -0.287402  -0.667915   0.000180  -0.467191  -1.353850   1.871540  -6.349470   0.271948   7.132260 -75.559800   4.634250   2.129640   0.358879   3.539410 -14.535600  12.005500  -6.160940  -1.492550  37.239600  30.196100 -45.329600 -34.421900   0.000147   0.000188 -12.315900   0.000000  -0.001634 -37.981100  -0.912410   1.167120 -31.083000  -0.009281   0.000436 -21.758100   0.000828   0.007199 -28.766400  -3.747970   6.791270 -43.483200  -0.002396  -0.000995 -28.959800   0.002441  -0.001298 -29.060100  -4.664860   8.326910 -44.099300  -0.001071   0.001767 -29.369200   0.000001   0.001409 -40.380700  -6.213060   7.250650 -61.161500  -0.006748  -0.002540 -40.733500  -0.000748  -0.002670   9.678380   3.071350   6.927610  70.003300  -4.011740  -2.534060   4.268720  -6.199280  14.703900 -20.700900   2.834010   5.319680 -43.521200  34.841900  75.255900  14.886300  -0.000485  -0.004247   2.443140   0.011232  -0.004831  38.289700   5.408920   6.825660  31.590400  -0.006768   0.000498  22.113100  -0.006456   0.001075  30.107500   4.391320   7.518960  45.592200   0.001713   0.001298  30.364400  -0.009137  -0.000608  34.003100   3.237880   4.785850  51.207400   0.001122  -0.001381  34.104100  -0.007309   0.010329  43.870800  -2.287230  -2.376460  65.876600   0.001130  -0.000153  43.873800  -0.000331  -0.000596   3.771120   1.577170  -1.939470   0.794372   2.676570  11.624900  -4.132300  -2.760520  -0.389275   0.000000   0.000000  -0.000000   1.068170   2.806200  -4.940260   0.180966   2.032600 -12.892400   0.060842  -4.303270  -2.672200   0.000000   0.000000   0.000000
